<svg xmlns="http://www.w3.org/2000/svg" viewBox="0 0 412.78 261.25"><defs><style>.cls-1{fill:none;stroke-width:15px;}.cls-1,.cls-2{stroke:#fff;stroke-miterlimit:10;}.cls-2{fill:#fff;}.cls-3{font-size:79.36px;fill:#e6e7e8;font-family:Inter18pt-Bold, "Inter 18pt";font-weight:700;}.cls-4{fill:#488fcd;}.cls-5{fill:#a7a9ac;letter-spacing:0em;}</style></defs><title>Layer 1 (5)</title><g id="Layer_2" data-name="Layer 2"><g id="Layer_1-2" data-name="Layer 1"><path class="cls-1" d="M87.43,7.5h0A79.92,79.92,0,0,0,7.5,87.43V253.75H167.35V87.43A79.92,79.92,0,0,0,87.43,7.5Z"/><rect class="cls-2" x="80.92" y="0.83" width="11.67" height="252.33"/><rect class="cls-2" x="3.03" y="80.17" width="164.33" height="11.28"/><rect class="cls-2" x="57.69" y="22.39" width="9.78" height="76.85" transform="translate(-24.67 62.06) rotate(-45)"/><rect class="cls-2" x="106.65" y="22.39" width="9.78" height="76.85" transform="translate(75.67 -61.06) rotate(45)"/><path class="cls-2" d="M114.66,172.06c-.38,8.51-12.45,8.11-12.74,0C102.3,163.54,114.37,164,114.66,172.06Z"/><rect class="cls-2" x="9.92" y="182.61" width="77.51" height="11.81"/><text class="cls-3" transform="translate(198.5 130.62)">Matix<tspan class="cls-4"><tspan x="0" y="95.23" xml:space="preserve">  </tspan><tspan class="cls-5" x="36.81" y="95.23">Hol</tspan></tspan></text></g></g></svg>